<svg height="1294" width="720" xmlns="http://www.w3.org/2000/svg">
<rect height="1294" fill="#555" width="720"></rect>
<text fill="#7f7" font-family="Courier New" font-size="12" xml:space="preserve">
<tspan x="10" y="26">15 megabytes installed</tspan>
<tspan x="10" y="42"></tspan>
<tspan x="10" y="58">node_modules</tspan>
<tspan x="10" y="74">└─┬ ubique@0.5.1 </tspan>
<tspan x="10" y="90">  ├── moment@2.18.1 </tspan>
<tspan x="10" y="106">  ├─┬ request@2.81.0 </tspan>
<tspan x="10" y="122">  │ ├── aws-sign2@0.6.0 </tspan>
<tspan x="10" y="138">  │ ├── aws4@1.6.0 </tspan>
<tspan x="10" y="154">  │ ├── caseless@0.12.0 </tspan>
<tspan x="10" y="170">  │ ├─┬ combined-stream@1.0.5 </tspan>
<tspan x="10" y="186">  │ │ └── delayed-stream@1.0.0 </tspan>
<tspan x="10" y="202">  │ ├── extend@3.0.0 </tspan>
<tspan x="10" y="218">  │ ├── forever-agent@0.6.1 </tspan>
<tspan x="10" y="234">  │ ├─┬ form-data@2.1.4 </tspan>
<tspan x="10" y="250">  │ │ └── asynckit@0.4.0 </tspan>
<tspan x="10" y="266">  │ ├─┬ har-validator@4.2.1 </tspan>
<tspan x="10" y="282">  │ │ ├─┬ ajv@4.11.7 </tspan>
<tspan x="10" y="298">  │ │ │ ├── co@4.6.0 </tspan>
<tspan x="10" y="314">  │ │ │ └─┬ json-stable-stringify@1.0.1 </tspan>
<tspan x="10" y="330">  │ │ │   └── jsonify@0.0.0 </tspan>
<tspan x="10" y="346">  │ │ └── har-schema@1.0.5 </tspan>
<tspan x="10" y="362">  │ ├─┬ hawk@3.1.3 </tspan>
<tspan x="10" y="378">  │ │ ├── boom@2.10.1 </tspan>
<tspan x="10" y="394">  │ │ ├── cryptiles@2.0.5 </tspan>
<tspan x="10" y="410">  │ │ ├── hoek@2.16.3 </tspan>
<tspan x="10" y="426">  │ │ └── sntp@1.0.9 </tspan>
<tspan x="10" y="442">  │ ├─┬ http-signature@1.1.1 </tspan>
<tspan x="10" y="458">  │ │ ├── assert-plus@0.2.0 </tspan>
<tspan x="10" y="474">  │ │ ├─┬ jsprim@1.4.0 </tspan>
<tspan x="10" y="490">  │ │ │ ├── assert-plus@1.0.0 </tspan>
<tspan x="10" y="506">  │ │ │ ├── extsprintf@1.0.2 </tspan>
<tspan x="10" y="522">  │ │ │ ├── json-schema@0.2.3 </tspan>
<tspan x="10" y="538">  │ │ │ └── verror@1.3.6 </tspan>
<tspan x="10" y="554">  │ │ └─┬ sshpk@1.13.0 </tspan>
<tspan x="10" y="570">  │ │   ├── asn1@0.2.3 </tspan>
<tspan x="10" y="586">  │ │   ├── assert-plus@1.0.0 </tspan>
<tspan x="10" y="602">  │ │   ├── bcrypt-pbkdf@1.0.1 </tspan>
<tspan x="10" y="618">  │ │   ├─┬ dashdash@1.14.1 </tspan>
<tspan x="10" y="634">  │ │   │ └── assert-plus@1.0.0 </tspan>
<tspan x="10" y="650">  │ │   ├── ecc-jsbn@0.1.1 </tspan>
<tspan x="10" y="666">  │ │   ├─┬ getpass@0.1.6 </tspan>
<tspan x="10" y="682">  │ │   │ └── assert-plus@1.0.0 </tspan>
<tspan x="10" y="698">  │ │   ├── jodid25519@1.0.2 </tspan>
<tspan x="10" y="714">  │ │   ├── jsbn@0.1.1 </tspan>
<tspan x="10" y="730">  │ │   └── tweetnacl@0.14.5 </tspan>
<tspan x="10" y="746">  │ ├── is-typedarray@1.0.0 </tspan>
<tspan x="10" y="762">  │ ├── isstream@0.1.2 </tspan>
<tspan x="10" y="778">  │ ├── json-stringify-safe@5.0.1 </tspan>
<tspan x="10" y="794">  │ ├─┬ mime-types@2.1.15 </tspan>
<tspan x="10" y="810">  │ │ └── mime-db@1.27.0 </tspan>
<tspan x="10" y="826">  │ ├── oauth-sign@0.8.2 </tspan>
<tspan x="10" y="842">  │ ├── performance-now@0.2.0 </tspan>
<tspan x="10" y="858">  │ ├── qs@6.4.0 </tspan>
<tspan x="10" y="874">  │ ├── safe-buffer@5.0.1 </tspan>
<tspan x="10" y="890">  │ ├── stringstream@0.0.5 </tspan>
<tspan x="10" y="906">  │ ├─┬ tough-cookie@2.3.2 </tspan>
<tspan x="10" y="922">  │ │ └── punycode@1.4.1 </tspan>
<tspan x="10" y="938">  │ ├── tunnel-agent@0.6.0 </tspan>
<tspan x="10" y="954">  │ └── uuid@3.0.1 </tspan>
<tspan x="10" y="970">  └─┬ sync-request@2.2.0 </tspan>
<tspan x="10" y="986">    ├─┬ concat-stream@1.6.0 </tspan>
<tspan x="10" y="1002">    │ ├── inherits@2.0.3 </tspan>
<tspan x="10" y="1018">    │ ├─┬ readable-stream@2.2.9 </tspan>
<tspan x="10" y="1034">    │ │ ├── buffer-shims@1.0.0 </tspan>
<tspan x="10" y="1050">    │ │ ├── core-util-is@1.0.2 </tspan>
<tspan x="10" y="1066">    │ │ ├── isarray@1.0.0 </tspan>
<tspan x="10" y="1082">    │ │ ├── process-nextick-args@1.0.7 </tspan>
<tspan x="10" y="1098">    │ │ ├── string_decoder@1.0.0 </tspan>
<tspan x="10" y="1114">    │ │ └── util-deprecate@1.0.2 </tspan>
<tspan x="10" y="1130">    │ └── typedarray@0.0.6 </tspan>
<tspan x="10" y="1146">    ├── http-response-object@1.1.0 </tspan>
<tspan x="10" y="1162">    ├─┬ spawn-sync@1.0.15 </tspan>
<tspan x="10" y="1178">    │ └── os-shim@0.1.3 </tspan>
<tspan x="10" y="1194">    └─┬ then-request@2.2.0 </tspan>
<tspan x="10" y="1210">      ├── caseless@0.11.0 </tspan>
<tspan x="10" y="1226">      ├─┬ http-basic@2.5.1 </tspan>
<tspan x="10" y="1242">      │ └── caseless@0.11.0 </tspan>
<tspan x="10" y="1258">      └─┬ promise@7.1.1 </tspan>
<tspan x="10" y="1274">        └── asap@2.0.5</tspan>
</text>
</svg>
